# xmcd CD database file
#
# Track frame offsets:
#	150
#	16700
#	35912
#	53705
#	76257
#	93385
#	112072
#	127552
#	147910
#	168140
#
# Disc length: 2476 seconds
#
# Revision: 14
# Processed by: cddbd v1.5.1PL2 Copyright (c) Steve Scherf et al.
# Submitted via: jetAudio 5
#
DISCID=7309aa0a
DTITLE=孫燕姿 - 孫燕姿
DYEAR=2000
DGENRE=Pop
TTITLE0=超快感TURBO
TTITLE1=愛情證書LOVE DOCUMENT
TTITLE2=天黑黑CLOUDY DAY
TTITLE3=E-LOVER
TTITLE4=濃眉毛SCULPTED EYEBROW
TTITLE5=和平MAKE PEACE
TTITLE6=自然NATURAL
TTITLE7=終於FINALLY
TTITLE8=很好FINE
TTITLE9=LEAVE ME ALONE
EXTD=l
EXTT0=
EXTT1=
EXTT2=
EXTT3=
EXTT4=
EXTT5=
EXTT6=
EXTT7=
EXTT8=
EXTT9=
PLAYORDER=
